<?xml version="1.0" encoding="UTF-8"?>
<svg xmlns="http://www.w3.org/2000/svg" xmlns:xlink="http://www.w3.org/1999/xlink" width="128pt" height="128pt" viewBox="0 0 128 128" version="1.1">
<g id="surface1">
<path style=" stroke:none;fill-rule:nonzero;fill:rgb(83.921569%,19.607843%,1.960784%);fill-opacity:1;" d="M 128 64 C 128 99.347656 99.347656 128 64 128 C 28.652344 128 0 99.347656 0 64 C 0 28.652344 28.652344 0 64 0 C 99.347656 0 128 28.652344 128 64 Z M 128 64 "/>
<path style=" stroke:none;fill-rule:nonzero;fill:rgb(71.764706%,14.117647%,0.784314%);fill-opacity:1;" d="M 18.785156 18.785156 C 43.769531 -6.195312 84.230469 -6.195312 109.214844 18.785156 C 134.195312 43.769531 134.195312 84.230469 109.214844 109.214844 "/>
<path style=" stroke:none;fill-rule:nonzero;fill:rgb(67.058824%,82.745098%,80%);fill-opacity:1;" d="M 64 44.179688 C 61.730469 44.179688 59.871094 42.324219 59.871094 40.257812 L 59.871094 17.753906 C 59.871094 15.484375 61.730469 13.832031 64 13.832031 C 66.269531 13.832031 68.128906 15.691406 68.128906 17.753906 L 68.128906 40.050781 C 68.128906 42.324219 66.269531 44.179688 64 44.179688 Z M 64 44.179688 "/>
<path style=" stroke:none;fill-rule:nonzero;fill:rgb(92.156863%,100%,98.823529%);fill-opacity:1;" d="M 93.730469 34.890625 C 87.742188 28.902344 80.515625 24.980469 72.257812 23.535156 L 72.257812 31.792969 C 78.453125 33.238281 83.613281 36.335938 87.949219 40.671875 C 94.347656 47.070312 97.859375 55.535156 97.859375 64.621094 C 97.859375 73.703125 94.347656 82.167969 87.949219 88.566406 C 81.546875 94.96875 73.082031 98.476562 64 98.476562 C 54.917969 98.476562 46.453125 94.96875 40.050781 88.566406 C 33.652344 82.167969 30.140625 73.703125 30.140625 64.824219 C 30.140625 55.742188 33.445312 47.277344 39.84375 40.878906 C 44.179688 36.542969 49.34375 33.445312 55.535156 32 L 55.535156 23.742188 C 47.277344 25.394531 40.050781 29.316406 34.066406 35.097656 C 26.21875 42.941406 21.882812 53.472656 21.882812 64.621094 C 21.882812 75.769531 26.21875 86.296875 34.066406 94.140625 C 41.910156 101.988281 52.4375 106.324219 63.585938 106.324219 C 74.734375 106.324219 85.265625 101.988281 93.109375 94.140625 C 100.953125 86.296875 105.496094 75.769531 105.496094 64.621094 C 105.703125 53.265625 101.574219 42.941406 93.730469 34.890625 Z M 93.730469 34.890625 "/>
<path style=" stroke:none;fill-rule:nonzero;fill:rgb(67.058824%,82.745098%,80%);fill-opacity:1;" d="M 72.257812 23.535156 L 72.257812 31.792969 C 78.453125 33.238281 83.613281 36.335938 87.949219 40.671875 C 94.347656 47.070312 97.859375 55.535156 97.859375 64.621094 C 97.859375 73.496094 94.347656 81.960938 88.15625 88.15625 L 93.730469 93.730469 C 101.367188 85.882812 105.703125 75.5625 105.703125 64.414062 C 105.703125 53.265625 101.574219 42.734375 93.523438 34.890625 C 87.742188 29.109375 80.515625 25.1875 72.257812 23.535156 Z M 72.257812 23.535156 "/>
<path style=" stroke:none;fill-rule:nonzero;fill:rgb(67.058824%,82.745098%,80%);fill-opacity:1;" d="M 40.257812 40.464844 C 44.59375 36.128906 49.546875 33.238281 55.742188 31.792969 L 55.742188 23.535156 C 47.484375 24.980469 40.464844 28.902344 34.476562 34.683594 Z M 40.257812 40.464844 "/>
<path style=" stroke:none;fill-rule:nonzero;fill:rgb(67.058824%,82.745098%,80%);fill-opacity:1;" d="M 69.574219 64 C 69.574219 67.078125 67.078125 69.574219 64 69.574219 C 60.921875 69.574219 58.425781 67.078125 58.425781 64 C 58.425781 60.921875 60.921875 58.425781 64 58.425781 C 67.078125 58.425781 69.574219 60.921875 69.574219 64 Z M 69.574219 64 "/>
<path style=" stroke:none;fill-rule:nonzero;fill:rgb(92.156863%,100%,98.823529%);fill-opacity:1;" d="M 67.921875 67.921875 C 65.652344 70.195312 62.140625 70.195312 59.871094 67.921875 C 57.601562 65.652344 57.601562 62.140625 59.871094 59.871094 "/>
</g>
</svg>
