<?xml version="1.0" encoding="UTF-8"?>
<svg xmlns="http://www.w3.org/2000/svg" xmlns:xlink="http://www.w3.org/1999/xlink" width="16pt" height="16pt" viewBox="0 0 16 16" version="1.1">
<g id="surface1">
<path style=" stroke:none;fill-rule:nonzero;fill:rgb(83.921569%,19.607843%,1.960784%);fill-opacity:1;" d="M 16 8 C 16 12.417969 12.417969 16 8 16 C 3.582031 16 0 12.417969 0 8 C 0 3.582031 3.582031 0 8 0 C 12.417969 0 16 3.582031 16 8 Z M 16 8 "/>
<path style=" stroke:none;fill-rule:nonzero;fill:rgb(71.764706%,14.117647%,0.784314%);fill-opacity:1;" d="M 2.347656 2.347656 C 5.472656 -0.773438 10.527344 -0.773438 13.652344 2.347656 C 16.773438 5.472656 16.773438 10.527344 13.652344 13.652344 "/>
<path style=" stroke:none;fill-rule:nonzero;fill:rgb(67.058824%,82.745098%,80%);fill-opacity:1;" d="M 8 5.523438 C 7.714844 5.523438 7.484375 5.289062 7.484375 5.03125 L 7.484375 2.21875 C 7.484375 1.933594 7.714844 1.730469 8 1.730469 C 8.285156 1.730469 8.515625 1.960938 8.515625 2.21875 L 8.515625 5.007812 C 8.515625 5.289062 8.285156 5.523438 8 5.523438 Z M 8 5.523438 "/>
<path style=" stroke:none;fill-rule:nonzero;fill:rgb(92.156863%,100%,98.823529%);fill-opacity:1;" d="M 11.714844 4.359375 C 10.96875 3.613281 10.066406 3.121094 9.03125 2.941406 L 9.03125 3.972656 C 9.804688 4.15625 10.453125 4.542969 10.992188 5.082031 C 11.792969 5.882812 12.230469 6.941406 12.230469 8.078125 C 12.230469 9.214844 11.792969 10.269531 10.992188 11.070312 C 10.195312 11.871094 9.136719 12.308594 8 12.308594 C 6.863281 12.308594 5.804688 11.871094 5.007812 11.070312 C 4.207031 10.269531 3.769531 9.214844 3.769531 8.101562 C 3.769531 6.96875 4.179688 5.910156 4.980469 5.109375 C 5.523438 4.566406 6.167969 4.179688 6.941406 4 L 6.941406 2.96875 C 5.910156 3.175781 5.007812 3.664062 4.257812 4.386719 C 3.277344 5.367188 2.734375 6.683594 2.734375 8.078125 C 2.734375 9.472656 3.277344 10.785156 4.257812 11.769531 C 5.238281 12.75 6.554688 13.289062 7.949219 13.289062 C 9.34375 13.289062 10.65625 12.75 11.640625 11.769531 C 12.621094 10.785156 13.1875 9.472656 13.1875 8.078125 C 13.214844 6.65625 12.695312 5.367188 11.714844 4.359375 Z M 11.714844 4.359375 "/>
<path style=" stroke:none;fill-rule:nonzero;fill:rgb(67.058824%,82.745098%,80%);fill-opacity:1;" d="M 9.03125 2.941406 L 9.03125 3.972656 C 9.804688 4.15625 10.453125 4.542969 10.992188 5.082031 C 11.792969 5.882812 12.230469 6.941406 12.230469 8.078125 C 12.230469 9.1875 11.792969 10.246094 11.019531 11.019531 L 11.714844 11.714844 C 12.671875 10.734375 13.214844 9.445312 13.214844 8.050781 C 13.214844 6.65625 12.695312 5.34375 11.691406 4.359375 C 10.96875 3.640625 10.066406 3.148438 9.03125 2.941406 Z M 9.03125 2.941406 "/>
<path style=" stroke:none;fill-rule:nonzero;fill:rgb(67.058824%,82.745098%,80%);fill-opacity:1;" d="M 5.03125 5.058594 C 5.574219 4.515625 6.195312 4.15625 6.96875 3.972656 L 6.96875 2.941406 C 5.933594 3.121094 5.058594 3.613281 4.308594 4.335938 Z M 5.03125 5.058594 "/>
<path style=" stroke:none;fill-rule:nonzero;fill:rgb(67.058824%,82.745098%,80%);fill-opacity:1;" d="M 8.695312 8 C 8.695312 8.386719 8.386719 8.695312 8 8.695312 C 7.613281 8.695312 7.304688 8.386719 7.304688 8 C 7.304688 7.613281 7.613281 7.304688 8 7.304688 C 8.386719 7.304688 8.695312 7.613281 8.695312 8 Z M 8.695312 8 "/>
<path style=" stroke:none;fill-rule:nonzero;fill:rgb(92.156863%,100%,98.823529%);fill-opacity:1;" d="M 8.492188 8.492188 C 8.207031 8.773438 7.769531 8.773438 7.484375 8.492188 C 7.199219 8.207031 7.199219 7.769531 7.484375 7.484375 "/>
</g>
</svg>
