<?xml version="1.0" encoding="UTF-8"?>
<svg xmlns="http://www.w3.org/2000/svg" xmlns:xlink="http://www.w3.org/1999/xlink" width="24pt" height="24pt" viewBox="0 0 24 24" version="1.1">
<g id="surface1">
<path style=" stroke:none;fill-rule:nonzero;fill:rgb(83.921569%,19.607843%,1.960784%);fill-opacity:1;" d="M 24 12 C 24 18.628906 18.628906 24 12 24 C 5.371094 24 0 18.628906 0 12 C 0 5.371094 5.371094 0 12 0 C 18.628906 0 24 5.371094 24 12 Z M 24 12 "/>
<path style=" stroke:none;fill-rule:nonzero;fill:rgb(71.764706%,14.117647%,0.784314%);fill-opacity:1;" d="M 3.523438 3.523438 C 8.207031 -1.160156 15.792969 -1.160156 20.476562 3.523438 C 25.160156 8.207031 25.160156 15.792969 20.476562 20.476562 "/>
<path style=" stroke:none;fill-rule:nonzero;fill:rgb(67.058824%,82.745098%,80%);fill-opacity:1;" d="M 12 8.285156 C 11.574219 8.285156 11.226562 7.933594 11.226562 7.546875 L 11.226562 3.328125 C 11.226562 2.902344 11.574219 2.59375 12 2.59375 C 12.425781 2.59375 12.773438 2.941406 12.773438 3.328125 L 12.773438 7.507812 C 12.773438 7.933594 12.425781 8.285156 12 8.285156 Z M 12 8.285156 "/>
<path style=" stroke:none;fill-rule:nonzero;fill:rgb(92.156863%,100%,98.823529%);fill-opacity:1;" d="M 17.574219 6.542969 C 16.453125 5.417969 15.097656 4.683594 13.546875 4.414062 L 13.546875 5.960938 C 14.710938 6.230469 15.675781 6.8125 16.492188 7.625 C 17.691406 8.824219 18.347656 10.414062 18.347656 12.117188 C 18.347656 13.820312 17.691406 15.40625 16.492188 16.605469 C 15.289062 17.804688 13.703125 18.464844 12 18.464844 C 10.296875 18.464844 8.710938 17.804688 7.507812 16.605469 C 6.308594 15.40625 5.652344 13.820312 5.652344 12.15625 C 5.652344 10.453125 6.269531 8.863281 7.472656 7.664062 C 8.285156 6.851562 9.25 6.269531 10.414062 6 L 10.414062 4.453125 C 8.863281 4.761719 7.507812 5.496094 6.386719 6.582031 C 4.917969 8.050781 4.101562 10.027344 4.101562 12.117188 C 4.101562 14.207031 4.917969 16.179688 6.386719 17.652344 C 7.859375 19.121094 9.832031 19.933594 11.921875 19.933594 C 14.011719 19.933594 15.988281 19.121094 17.457031 17.652344 C 18.929688 16.179688 19.78125 14.207031 19.78125 12.117188 C 19.820312 9.988281 19.046875 8.050781 17.574219 6.542969 Z M 17.574219 6.542969 "/>
<path style=" stroke:none;fill-rule:nonzero;fill:rgb(67.058824%,82.745098%,80%);fill-opacity:1;" d="M 13.546875 4.414062 L 13.546875 5.960938 C 14.710938 6.230469 15.675781 6.8125 16.492188 7.625 C 17.691406 8.824219 18.347656 10.414062 18.347656 12.117188 C 18.347656 13.78125 17.691406 15.367188 16.527344 16.527344 L 17.574219 17.574219 C 19.007812 16.101562 19.820312 14.167969 19.820312 12.078125 C 19.820312 9.988281 19.046875 8.011719 17.535156 6.542969 C 16.453125 5.457031 15.097656 4.722656 13.546875 4.414062 Z M 13.546875 4.414062 "/>
<path style=" stroke:none;fill-rule:nonzero;fill:rgb(67.058824%,82.745098%,80%);fill-opacity:1;" d="M 7.546875 7.585938 C 8.359375 6.773438 9.289062 6.230469 10.453125 5.960938 L 10.453125 4.414062 C 8.902344 4.683594 7.585938 5.417969 6.464844 6.503906 Z M 7.546875 7.585938 "/>
<path style=" stroke:none;fill-rule:nonzero;fill:rgb(67.058824%,82.745098%,80%);fill-opacity:1;" d="M 13.046875 12 C 13.046875 12.578125 12.578125 13.046875 12 13.046875 C 11.421875 13.046875 10.953125 12.578125 10.953125 12 C 10.953125 11.421875 11.421875 10.953125 12 10.953125 C 12.578125 10.953125 13.046875 11.421875 13.046875 12 Z M 13.046875 12 "/>
<path style=" stroke:none;fill-rule:nonzero;fill:rgb(92.156863%,100%,98.823529%);fill-opacity:1;" d="M 12.734375 12.734375 C 12.308594 13.160156 11.652344 13.160156 11.226562 12.734375 C 10.800781 12.308594 10.800781 11.652344 11.226562 11.226562 "/>
</g>
</svg>
