<?xml version="1.0" encoding="UTF-8"?>
<svg xmlns="http://www.w3.org/2000/svg" xmlns:xlink="http://www.w3.org/1999/xlink" width="32pt" height="32pt" viewBox="0 0 32 32" version="1.1">
<g id="surface1">
<path style=" stroke:none;fill-rule:nonzero;fill:rgb(83.921569%,19.607843%,1.960784%);fill-opacity:1;" d="M 32 16 C 32 24.835938 24.835938 32 16 32 C 7.164062 32 0 24.835938 0 16 C 0 7.164062 7.164062 0 16 0 C 24.835938 0 32 7.164062 32 16 Z M 32 16 "/>
<path style=" stroke:none;fill-rule:nonzero;fill:rgb(71.764706%,14.117647%,0.784314%);fill-opacity:1;" d="M 4.695312 4.695312 C 10.941406 -1.546875 21.058594 -1.546875 27.304688 4.695312 C 33.546875 10.941406 33.546875 21.058594 27.304688 27.304688 "/>
<path style=" stroke:none;fill-rule:nonzero;fill:rgb(67.058824%,82.745098%,80%);fill-opacity:1;" d="M 16 11.046875 C 15.433594 11.046875 14.96875 10.582031 14.96875 10.066406 L 14.96875 4.4375 C 14.96875 3.871094 15.433594 3.457031 16 3.457031 C 16.566406 3.457031 17.03125 3.921875 17.03125 4.4375 L 17.03125 10.011719 C 17.03125 10.582031 16.566406 11.046875 16 11.046875 Z M 16 11.046875 "/>
<path style=" stroke:none;fill-rule:nonzero;fill:rgb(92.156863%,100%,98.823529%);fill-opacity:1;" d="M 23.433594 8.722656 C 21.933594 7.226562 20.128906 6.246094 18.066406 5.882812 L 18.066406 7.949219 C 19.613281 8.308594 20.902344 9.082031 21.988281 10.167969 C 23.585938 11.769531 24.464844 13.882812 24.464844 16.15625 C 24.464844 18.425781 23.585938 20.542969 21.988281 22.140625 C 20.386719 23.742188 18.269531 24.621094 16 24.621094 C 13.730469 24.621094 11.613281 23.742188 10.011719 22.140625 C 8.414062 20.542969 7.535156 18.425781 7.535156 16.207031 C 7.535156 13.933594 8.359375 11.820312 9.960938 10.21875 C 11.046875 9.136719 12.335938 8.359375 13.882812 8 L 13.882812 5.933594 C 11.820312 6.347656 10.011719 7.328125 8.515625 8.773438 C 6.554688 10.734375 5.472656 13.367188 5.472656 16.15625 C 5.472656 18.941406 6.554688 21.574219 8.515625 23.535156 C 10.476562 25.496094 13.109375 26.582031 15.898438 26.582031 C 18.683594 26.582031 21.316406 25.496094 23.277344 23.535156 C 25.238281 21.574219 26.375 18.941406 26.375 16.15625 C 26.425781 13.316406 25.394531 10.734375 23.433594 8.722656 Z M 23.433594 8.722656 "/>
<path style=" stroke:none;fill-rule:nonzero;fill:rgb(67.058824%,82.745098%,80%);fill-opacity:1;" d="M 18.066406 5.882812 L 18.066406 7.949219 C 19.613281 8.308594 20.902344 9.082031 21.988281 10.167969 C 23.585938 11.769531 24.464844 13.882812 24.464844 16.15625 C 24.464844 18.375 23.585938 20.492188 22.039062 22.039062 L 23.433594 23.433594 C 25.34375 21.472656 26.425781 18.890625 26.425781 16.101562 C 26.425781 13.316406 25.394531 10.683594 23.378906 8.722656 C 21.933594 7.277344 20.128906 6.296875 18.066406 5.882812 Z M 18.066406 5.882812 "/>
<path style=" stroke:none;fill-rule:nonzero;fill:rgb(67.058824%,82.745098%,80%);fill-opacity:1;" d="M 10.066406 10.117188 C 11.148438 9.03125 12.386719 8.308594 13.933594 7.949219 L 13.933594 5.882812 C 11.871094 6.246094 10.117188 7.226562 8.621094 8.671875 Z M 10.066406 10.117188 "/>
<path style=" stroke:none;fill-rule:nonzero;fill:rgb(67.058824%,82.745098%,80%);fill-opacity:1;" d="M 17.394531 16 C 17.394531 16.769531 16.769531 17.394531 16 17.394531 C 15.230469 17.394531 14.605469 16.769531 14.605469 16 C 14.605469 15.230469 15.230469 14.605469 16 14.605469 C 16.769531 14.605469 17.394531 15.230469 17.394531 16 Z M 17.394531 16 "/>
<path style=" stroke:none;fill-rule:nonzero;fill:rgb(92.156863%,100%,98.823529%);fill-opacity:1;" d="M 16.980469 16.980469 C 16.414062 17.546875 15.535156 17.546875 14.96875 16.980469 C 14.398438 16.414062 14.398438 15.535156 14.96875 14.96875 "/>
</g>
</svg>
