<?xml version="1.0" encoding="UTF-8"?>
<svg xmlns="http://www.w3.org/2000/svg" xmlns:xlink="http://www.w3.org/1999/xlink" width="48pt" height="48pt" viewBox="0 0 48 48" version="1.1">
<g id="surface1">
<path style=" stroke:none;fill-rule:nonzero;fill:rgb(83.921569%,19.607843%,1.960784%);fill-opacity:1;" d="M 48 24 C 48 37.253906 37.253906 48 24 48 C 10.746094 48 0 37.253906 0 24 C 0 10.746094 10.746094 0 24 0 C 37.253906 0 48 10.746094 48 24 Z M 48 24 "/>
<path style=" stroke:none;fill-rule:nonzero;fill:rgb(71.764706%,14.117647%,0.784314%);fill-opacity:1;" d="M 7.046875 7.046875 C 16.414062 -2.324219 31.585938 -2.324219 40.953125 7.046875 C 50.324219 16.414062 50.324219 31.585938 40.953125 40.953125 "/>
<path style=" stroke:none;fill-rule:nonzero;fill:rgb(67.058824%,82.745098%,80%);fill-opacity:1;" d="M 24 16.566406 C 23.148438 16.566406 22.453125 15.871094 22.453125 15.097656 L 22.453125 6.65625 C 22.453125 5.804688 23.148438 5.1875 24 5.1875 C 24.851562 5.1875 25.546875 5.882812 25.546875 6.65625 L 25.546875 15.019531 C 25.546875 15.871094 24.851562 16.566406 24 16.566406 Z M 24 16.566406 "/>
<path style=" stroke:none;fill-rule:nonzero;fill:rgb(92.156863%,100%,98.823529%);fill-opacity:1;" d="M 35.148438 13.082031 C 32.902344 10.839844 30.195312 9.367188 27.097656 8.824219 L 27.097656 11.921875 C 29.417969 12.464844 31.355469 13.625 32.980469 15.25 C 35.378906 17.652344 36.695312 20.824219 36.695312 24.230469 C 36.695312 27.640625 35.378906 30.8125 32.980469 33.214844 C 30.582031 35.613281 27.40625 36.929688 24 36.929688 C 20.59375 36.929688 17.417969 35.613281 15.019531 33.214844 C 12.621094 30.8125 11.304688 27.640625 11.304688 24.308594 C 11.304688 20.902344 12.542969 17.730469 14.941406 15.328125 C 16.566406 13.703125 18.503906 12.542969 20.824219 12 L 20.824219 8.902344 C 17.730469 9.523438 15.019531 10.992188 12.773438 13.160156 C 9.832031 16.101562 8.207031 20.050781 8.207031 24.230469 C 8.207031 28.414062 9.832031 32.359375 12.773438 35.304688 C 15.714844 38.246094 19.664062 39.871094 23.84375 39.871094 C 28.027344 39.871094 31.972656 38.246094 34.917969 35.304688 C 37.859375 32.359375 39.5625 28.414062 39.5625 24.230469 C 39.640625 19.972656 38.089844 16.101562 35.148438 13.082031 Z M 35.148438 13.082031 "/>
<path style=" stroke:none;fill-rule:nonzero;fill:rgb(67.058824%,82.745098%,80%);fill-opacity:1;" d="M 27.097656 8.824219 L 27.097656 11.921875 C 29.417969 12.464844 31.355469 13.625 32.980469 15.25 C 35.378906 17.652344 36.695312 20.824219 36.695312 24.230469 C 36.695312 27.5625 35.378906 30.734375 33.058594 33.058594 L 35.148438 35.148438 C 38.011719 32.207031 39.640625 28.335938 39.640625 24.15625 C 39.640625 19.972656 38.089844 16.027344 35.070312 13.082031 C 32.902344 10.917969 30.195312 9.445312 27.097656 8.824219 Z M 27.097656 8.824219 "/>
<path style=" stroke:none;fill-rule:nonzero;fill:rgb(67.058824%,82.745098%,80%);fill-opacity:1;" d="M 15.097656 15.175781 C 16.722656 13.546875 18.582031 12.464844 20.902344 11.921875 L 20.902344 8.824219 C 17.804688 9.367188 15.175781 10.839844 12.929688 13.007812 Z M 15.097656 15.175781 "/>
<path style=" stroke:none;fill-rule:nonzero;fill:rgb(67.058824%,82.745098%,80%);fill-opacity:1;" d="M 26.089844 24 C 26.089844 25.15625 25.15625 26.089844 24 26.089844 C 22.84375 26.089844 21.910156 25.15625 21.910156 24 C 21.910156 22.84375 22.84375 21.910156 24 21.910156 C 25.15625 21.910156 26.089844 22.84375 26.089844 24 Z M 26.089844 24 "/>
<path style=" stroke:none;fill-rule:nonzero;fill:rgb(92.156863%,100%,98.823529%);fill-opacity:1;" d="M 25.472656 25.472656 C 24.621094 26.324219 23.304688 26.324219 22.453125 25.472656 C 21.601562 24.621094 21.601562 23.304688 22.453125 22.453125 "/>
</g>
</svg>
