<?xml version="1.0" encoding="UTF-8"?>
<svg xmlns="http://www.w3.org/2000/svg" xmlns:xlink="http://www.w3.org/1999/xlink" width="64pt" height="64pt" viewBox="0 0 64 64" version="1.1">
<g id="surface1">
<path style=" stroke:none;fill-rule:nonzero;fill:rgb(83.921569%,19.607843%,1.960784%);fill-opacity:1;" d="M 64 32 C 64 49.671875 49.671875 64 32 64 C 14.328125 64 0 49.671875 0 32 C 0 14.328125 14.328125 0 32 0 C 49.671875 0 64 14.328125 64 32 Z M 64 32 "/>
<path style=" stroke:none;fill-rule:nonzero;fill:rgb(71.764706%,14.117647%,0.784314%);fill-opacity:1;" d="M 9.394531 9.394531 C 21.886719 -3.097656 42.113281 -3.097656 54.605469 9.394531 C 67.097656 21.886719 67.097656 42.113281 54.605469 54.605469 "/>
<path style=" stroke:none;fill-rule:nonzero;fill:rgb(67.058824%,82.745098%,80%);fill-opacity:1;" d="M 32 22.089844 C 30.863281 22.089844 29.9375 21.160156 29.9375 20.128906 L 29.9375 8.875 C 29.9375 7.738281 30.863281 6.917969 32 6.917969 C 33.136719 6.917969 34.0625 7.84375 34.0625 8.875 L 34.0625 20.027344 C 34.0625 21.160156 33.136719 22.089844 32 22.089844 Z M 32 22.089844 "/>
<path style=" stroke:none;fill-rule:nonzero;fill:rgb(92.156863%,100%,98.823529%);fill-opacity:1;" d="M 46.863281 17.441406 C 43.871094 14.453125 40.261719 12.488281 36.128906 11.765625 L 36.128906 15.894531 C 39.222656 16.621094 41.808594 18.167969 43.972656 20.332031 C 47.171875 23.535156 48.925781 27.765625 48.925781 32.308594 C 48.925781 36.855469 47.171875 41.082031 43.972656 44.285156 C 40.777344 47.484375 36.542969 49.238281 32 49.238281 C 27.457031 49.238281 23.222656 47.484375 20.027344 44.285156 C 16.828125 41.082031 15.074219 36.855469 15.074219 32.410156 C 15.074219 27.871094 16.722656 23.640625 19.921875 20.4375 C 22.089844 18.269531 24.671875 16.722656 27.765625 16 L 27.765625 11.871094 C 23.640625 12.699219 20.027344 14.65625 17.03125 17.546875 C 13.109375 21.46875 10.941406 26.734375 10.941406 32.308594 C 10.941406 37.886719 13.109375 43.144531 17.03125 47.074219 C 20.953125 50.996094 26.21875 53.160156 31.792969 53.160156 C 37.371094 53.160156 42.628906 50.996094 46.558594 47.074219 C 50.480469 43.144531 52.75 37.886719 52.75 32.308594 C 52.855469 26.628906 50.785156 21.46875 46.863281 17.441406 Z M 46.863281 17.441406 "/>
<path style=" stroke:none;fill-rule:nonzero;fill:rgb(67.058824%,82.745098%,80%);fill-opacity:1;" d="M 36.128906 11.765625 L 36.128906 15.894531 C 39.222656 16.621094 41.808594 18.167969 43.972656 20.332031 C 47.171875 23.535156 48.925781 27.765625 48.925781 32.308594 C 48.925781 36.75 47.171875 40.980469 44.078125 44.078125 L 46.863281 46.863281 C 50.683594 42.941406 52.855469 37.78125 52.855469 32.207031 C 52.855469 26.628906 50.785156 21.371094 46.761719 17.441406 C 43.871094 14.558594 40.261719 12.59375 36.128906 11.765625 Z M 36.128906 11.765625 "/>
<path style=" stroke:none;fill-rule:nonzero;fill:rgb(67.058824%,82.745098%,80%);fill-opacity:1;" d="M 20.128906 20.234375 C 22.296875 18.0625 24.777344 16.621094 27.871094 15.894531 L 27.871094 11.765625 C 23.738281 12.488281 20.234375 14.453125 17.238281 17.34375 Z M 20.128906 20.234375 "/>
<path style=" stroke:none;fill-rule:nonzero;fill:rgb(67.058824%,82.745098%,80%);fill-opacity:1;" d="M 34.785156 32 C 34.785156 33.542969 33.542969 34.785156 32 34.785156 C 30.457031 34.785156 29.214844 33.542969 29.214844 32 C 29.214844 30.457031 30.457031 29.214844 32 29.214844 C 33.542969 29.214844 34.785156 30.457031 34.785156 32 Z M 34.785156 32 "/>
<path style=" stroke:none;fill-rule:nonzero;fill:rgb(92.156863%,100%,98.823529%);fill-opacity:1;" d="M 33.964844 33.964844 C 32.828125 35.097656 31.074219 35.097656 29.9375 33.964844 C 28.800781 32.828125 28.800781 31.074219 29.9375 29.9375 "/>
</g>
</svg>
